<svg width="23" height="24" xmlns="http://www.w3.org/2000/svg" xmlns:xlink="http://www.w3.org/1999/xlink"><use xlink:href="#path0_fill" fill="#FFF"/><use xlink:href="#path1_fill" fill="url(#paint1_linear)"/><use xlink:href="#path2_fill" transform="translate(2.59 4.757)" fill="url(#paint2_linear)"/><defs><linearGradient id="paint1_linear" x2="1" gradientUnits="userSpaceOnUse" gradientTransform="matrix(-.78213 24.0647 -23.062 -.81613 13.116 1.668)"><stop offset="0" stop-color="#8BB1FC"/><stop offset="1" stop-color="#71C2F0"/></linearGradient><linearGradient id="paint2_linear" x2="1" gradientUnits="userSpaceOnUse" gradientTransform="matrix(0 12.4851 -17.8281 0 17.828 0)"><stop offset="0" stop-color="#5485E3"/><stop offset="1" stop-color="#8C96ED"/></linearGradient><path id="path0_fill" fill-rule="evenodd" d="M11.501.001V0H11.5v.001L0 5.678c0 13.72 11.308 18.245 11.499 18.32V24h.002v-.001C11.692 23.923 23 19.399 23 5.678L11.501 0z"/><path id="path1_fill" fill-rule="evenodd" d="M11.501.001V0H11.5v.001L0 5.678c0 13.72 11.308 18.245 11.499 18.32V24h.002v-.001C11.692 23.923 23 19.399 23 5.678L11.501 0zm0 22.498l-.002.001C11.333 22.433 1.5 18.473 1.5 6.468l9.999-4.967h.001l.001-.001L21.5 6.468c0 12.005-9.833 15.965-9.999 16.031z"/><path id="path2_fill" fill-rule="evenodd" d="M9.444 0l-3 12 1.94.485 3-12L9.444 0zM4.707 1.535L6.121 2.95 2.83 6.243 6.12 9.535 4.707 10.95 0 6.243l4.707-4.708zm8.414 0L11.707 2.95l3.292 3.293-3.292 3.292 1.414 1.415 4.707-4.707-4.707-4.708z"/></defs></svg>
