<?xml version="1.0" encoding="iso-8859-1"?>
<!-- Generator: Adobe Illustrator 19.0.0, SVG Export Plug-In . SVG Version: 6.00 Build 0)  -->
<svg version="1.1" id="Capa_1" xmlns="http://www.w3.org/2000/svg" xmlns:xlink="http://www.w3.org/1999/xlink" x="0px" y="0px"
	 viewBox="0 0 465 465" style="enable-background:new 0 0 465 465;" xml:space="preserve">
<g>
	<path style="fill:#FFFFFF;" d="M300,375V90H165v202.5c0,4.143-3.358,7.5-7.5,7.5v15c4.142,0,7.5,3.357,7.5,7.5V375H300z
		 M232.5,196.25c15.164,0,27.5,12.336,27.5,27.5s-12.336,27.5-27.5,27.5s-27.5-12.336-27.5-27.5S217.336,196.25,232.5,196.25z
		 M187.5,216.25c4.142,0,7.5,3.357,7.5,7.5c0,20.678,16.822,37.5,37.5,37.5s37.5-16.822,37.5-37.5c0-4.143,3.357-7.5,7.5-7.5
		s7.5,3.357,7.5,7.5c0,28.948-23.552,52.5-52.5,52.5c-28.949,0-52.5-23.552-52.5-52.5C180,219.607,183.358,216.25,187.5,216.25z"/>
	<path style="fill:#259245;" d="M150,292.5V90H15v285h135v-52.5c0-4.143,3.358-7.5,7.5-7.5v-15C153.358,300,150,296.643,150,292.5z"
		/>
	<rect x="315" y="90" style="fill:#ED1F34;" width="135" height="285"/>
	<path d="M457.5,75H7.5C3.358,75,0,78.357,0,82.5v300c0,4.143,3.358,7.5,7.5,7.5h450c4.143,0,7.5-3.357,7.5-7.5v-300
		C465,78.357,461.643,75,457.5,75z M450,375H315V90h135V375z M157.5,315c-4.142,0-7.5,3.357-7.5,7.5V375H15V90h135v202.5
		c0,4.143,3.358,7.5,7.5,7.5s7.5-3.357,7.5-7.5V90h135v285H165v-52.5C165,318.357,161.642,315,157.5,315z"/>
	<path style="fill:#134923;" d="M232.5,276.25c28.948,0,52.5-23.552,52.5-52.5c0-4.143-3.357-7.5-7.5-7.5s-7.5,3.357-7.5,7.5
		c0,20.678-16.822,37.5-37.5,37.5s-37.5-16.822-37.5-37.5c0-4.143-3.358-7.5-7.5-7.5s-7.5,3.357-7.5,7.5
		C180,252.698,203.551,276.25,232.5,276.25z"/>
	<path style="fill:#F2A643;" d="M232.5,251.25c15.164,0,27.5-12.336,27.5-27.5s-12.336-27.5-27.5-27.5s-27.5,12.336-27.5,27.5
		S217.336,251.25,232.5,251.25z"/>
</g>
<g>
</g>
<g>
</g>
<g>
</g>
<g>
</g>
<g>
</g>
<g>
</g>
<g>
</g>
<g>
</g>
<g>
</g>
<g>
</g>
<g>
</g>
<g>
</g>
<g>
</g>
<g>
</g>
<g>
</g>
</svg>
