<svg width="48" height="48" viewBox="0 0 48 48" version="1.1" xmlns="http://www.w3.org/2000/svg" xmlns:xlink="http://www.w3.org/1999/xlink">
<title>PY_shield Copy</title>
<desc>Created using Figma</desc>
<g id="Canvas" transform="translate(212 222)">
<clipPath id="clip-0" clip-rule="evenodd">
<path d="M -212 -222L -164 -222L -164 -174L -212 -174L -212 -222Z" fill="#FFFFFF"/>
</clipPath>
<g id="PY_shield Copy" clip-path="url(#clip-0)">
<g id="PY_shield">
<g id="Group + Group">
<g id="Group">
<g id="Fill 1">
<use xlink:href="#path0_fill" transform="translate(-211 -222.003)" fill="#E9EFF0"/>
</g>
<g id="Fill 3">
<use xlink:href="#path1_fill" transform="translate(-211 -222)" fill="#3498DB"/>
</g>
</g>
</g>
<g id="Group">
<g id="Fill 7 Copy">
<use xlink:href="#path2_fill" transform="translate(-198.63 -204.36)" fill="#3498DB"/>
</g>
<g id="Fill 8 Copy">
<use xlink:href="#path3_fill" transform="translate(-193.069 -209.799)" fill="#3498DB"/>
</g>
<g id="Fill 9">
<use xlink:href="#path4_fill" transform="translate(-188 -209.772)" fill="#1478BA"/>
</g>
<g id="Fill 10">
<use xlink:href="#path5_fill" transform="translate(-190.172 -204.545)" fill="#3498DB"/>
</g>
<g id="Fill 11">
<use xlink:href="#path6_fill" transform="translate(-188.958 -192.522)" fill="#3498DB"/>
</g>
<g id="Fill 12">
<use xlink:href="#path7_fill" transform="translate(-192.44 -198.506)" fill="#1478BA"/>
</g>
</g>
</g>
</g>
</g>
<defs>
<path id="path0_fill" fill-rule="evenodd" d="M 0 11.3565C 0 38.8013 22.6163 47.8514 22.9972 48.0028C 23.3844 47.8514 46 38.8013 46 11.3565L 23.0025 0.00283081L 0 11.3565Z"/>
<path id="path1_fill" fill-rule="evenodd" d="M 23.0025 0.00283048L 23.0025 0L 22.9972 0L 22.9972 0.00283048L 0 11.3552C 0 38.7967 22.6163 47.8457 22.9972 47.9972L 22.9972 48L 23 47.9986L 23.0025 48L 23.0025 47.9972C 23.3844 47.8457 46 38.7967 46 11.3552L 23.0025 0.00283048ZM 23.0025 44.9986L 23.0025 45L 22.9971 45L 22.9971 44.9986C 22.6659 44.8656 3 36.946 3 12.9366L 22.9971 3.00179L 22.9971 3L 23 3.00143L 23.0025 3L 23.0025 3.00179L 43 12.9366C 43 36.946 23.3337 44.8656 23.0025 44.9986Z"/>
<path id="path2_fill" fill-rule="evenodd" d="M 12.8022 0L 3.65278 0C 2.12572 0 0.788427 0.923181 0.369863 2.67959C -0.112583 4.69266 -0.133878 5.94893 0.369863 8.0511C 0.743623 9.61578 1.63577 10.7307 3.16284 10.7307L 4.62875 10.7307L 4.62875 8.31599C 4.62875 5.76988 6.47029 4.69009 8.25238 4.69009L 12.8022 4.69009L 12.8022 0Z"/>
<path id="path3_fill" fill-rule="evenodd" d="M 2.62722 0.0699521C 0.403913 0.464891 0 1.29195 0 2.81722L 0 4.14631L 6.02735 4.14631L 6.02735 0.0271171C 5.14916 0.0341421 3.36656 -0.0616371 2.62722 0.0699521ZM 2.18906 2.94143C 1.80082 2.94143 1.48634 2.62514 1.48634 2.23466C 1.48634 1.84434 1.80082 1.52788 2.18906 1.52788C 2.57713 1.52788 2.89178 1.84434 2.89178 2.23466C 2.89178 2.62514 2.57713 2.94143 2.18906 2.94143Z"/>
<path id="path4_fill" fill-rule="evenodd" d="M 0 10.1039L 2.32399 10.1039C 3.76196 10.1039 4.44031 9.38173 4.44031 7.93528L 4.44031 2.91004C 4.44031 1.48004 3.71341 0.638242 2.32399 0.228396C 1.5073 -0.0130218 0.838489 0.015592 0 0L 0 10.1039Z"/>
<path id="path5_fill" fill-rule="evenodd" d="M 0 10.7309L 9.14945 10.7309C 10.6765 10.7309 12.0136 9.80768 12.4322 8.05127C 12.9146 6.0382 12.9359 4.78193 12.4322 2.67976C 12.0586 1.11508 11.1665 0 9.63939 0L 8.17331 0L 8.17331 2.41487C 8.17331 4.96098 6.33194 6.04077 4.54985 6.04077L 0 6.04077L 0 10.7309Z"/>
<path id="path6_fill" fill-rule="evenodd" d="M 3.40012 4.07635C 5.62343 3.68141 6.02735 2.85418 6.02735 1.32909L 6.02735 0L 0 0L 0 4.11919C 0.878182 4.11216 2.66078 4.20794 3.40012 4.07635ZM 3.83828 1.20486C 4.22635 1.20486 4.54099 1.52116 4.54099 1.91164C 4.54099 2.30196 4.22635 2.61842 3.83828 2.61842C 3.45021 2.61842 3.13556 2.30196 3.13556 1.91164C 3.13556 1.52116 3.45021 1.20486 3.83828 1.20486Z"/>
<path id="path7_fill" fill-rule="evenodd" d="M 4.38359 0L 2.11633 0C 0.678526 0 0 0.72237 0 2.16865L 0 7.19389C 0 8.62389 0.727077 9.46569 2.11633 9.87553C 2.93301 10.1168 3.5451 10.0882 4.38359 10.1039L 4.38359 0Z"/>
</defs>
</svg>
