<?xml version="1.0" encoding="utf-8"?>
<!-- Generator: Adobe Illustrator 19.2.1, SVG Export Plug-In . SVG Version: 6.00 Build 0)  -->
<svg version="1.1" id="logo" xmlns="http://www.w3.org/2000/svg" xmlns:xlink="http://www.w3.org/1999/xlink" x="0px" y="0px"
	 viewBox="0 0 167.7 35.5" style="enable-background:new 0 0 167.7 35.5;" xml:space="preserve">
<style type="text/css">
	.st0{fill:#0097E0;}
	.st1{fill:#0096DF;}
</style>
<path id="S" class="st0" d="M7.3,11.4c0,6.3,4.2,11.4,9.4,11.4h26.1c0.6,0,1.2,0.6,1.2,1.4c0,0.8-0.5,1.4-1.2,1.4H7.2v10.1h39.8
	c5.2,0,9.4-5.2,9.4-11.5c0-6.3-4.2-11.5-9.4-11.5H21c-0.6,0-1.2-0.6-1.2-1.4c0-0.8,0.5-1.4,1.2-1.4h35.3V0H16.7
	C11.5,0,7.3,5.1,7.3,11.4z"/>
<polygon id="N" class="st0" points="96,0 96,22.2 72.2,0 59.2,0 59.2,35.5 71.7,35.5 71.7,13.2 95.5,35.5 108.5,35.5 108.5,0 "/>
<polygon id="K" class="st0" points="160.4,0 144.1,0 123.9,15.6 123.9,0 111.2,0 111.2,35.5 123.9,35.5 123.9,19.8 144.1,35.5 
	160.4,35.5 137.4,17.8 "/>
<path id="mark" class="st1" d="M166.7,1.1C166,0.4,165.1,0,164.1,0c-1,0-1.9,0.4-2.6,1.1c-0.7,0.7-1.1,1.6-1.1,2.6
	c0,1,0.4,1.9,1.1,2.6c0.7,0.7,1.6,1.1,2.6,1.1c1,0,1.9-0.4,2.6-1.1c0.7-0.7,1.1-1.6,1.1-2.6C167.7,2.6,167.4,1.8,166.7,1.1z
	 M166.3,5.9c-0.6,0.6-1.3,0.9-2.2,0.9c-0.9,0-1.6-0.3-2.2-0.9c-0.6-0.6-0.9-1.4-0.9-2.2c0-0.9,0.3-1.6,0.9-2.2
	c0.6-0.6,1.4-0.9,2.2-0.9c0.9,0,1.6,0.3,2.2,0.9c0.6,0.6,0.9,1.4,0.9,2.2C167.2,4.5,166.9,5.3,166.3,5.9z"/>
<path id="R" class="st1" d="M165.8,3.1V3c0-0.6-0.5-1.1-1.1-1.1l0,0h-2.1v3.7h0.6V4.2l1.3,0c0.3,0,0.5,0.2,0.5,0.4l0,0l0.1,0.9h0.6
	l-0.1-0.9c0-0.3-0.2-0.5-0.3-0.7C165.6,3.8,165.8,3.5,165.8,3.1z M163.2,2.5h1.5l0,0c0.3,0,0.5,0.2,0.5,0.5v0.2
	c0,0.3-0.2,0.5-0.5,0.5h-1.5V2.5z"/>
</svg>
